PathFileType	4	(X/Y/Z)	/Users/visionmauri/Downloads/Videos/OAW02-top_Sports2D/OAW02-top_Sports2D_m_person00.trc
DataRate	CameraRate	NumFrames	NumMarkers	Units	OrigDataRate	OrigDataStartFrame	OrigNumFrames
30.0	30.0	8	22	m	30.0	1348	2158
Frame#	Time	Hip			RHip			RKnee			RAnkle			RBigToe			RSmallToe			RHeel			LHip			LKnee			LAnkle			LBigToe			LSmallToe			LHeel			Neck			Head			Nose			RShoulder			RElbow			RWrist			LShoulder			LElbow			LWrist			
		X1	Y1	Z1	X2	Y2	Z2	X3	Y3	Z3	X4	Y4	Z4	X5	Y5	Z5	X6	Y6	Z6	X7	Y7	Z7	X8	Y8	Z8	X9	Y9	Z9	X10	Y10	Z10	X11	Y11	Z11	X12	Y12	Z12	X13	Y13	Z13	X14	Y14	Z14	X15	Y15	Z15	X16	Y16	Z16	X17	Y17	Z17	X18	Y18	Z18	X19	Y19	Z19	X20	Y20	Z20	X21	Y21	Z21	X22	Y22	Z22
1348	44.954164734971414	5.764814781109405	0.17851526410268542	0.0301	5.795462653345838	0.24162437789639432	0.0301	5.983601594209189	0.17108808239258713	0.129	6.1776920109824855	0.11565649056115952	0.023	6.243628474142056	0.059307284179599656	0.2179	6.260844999102514	0.10597332354035978	0.1804	6.229915258229469	0.09622314897797152	-0.0119	5.758775627412022	0.11564560911784007	0.0301	5.981259775555143	0.05776529270257618	0.129	6.218330133878343	0.0005487482337900113	0.023	6.235566351643609	-0.0002448407593913089	0.2179	6.239406881078925	-0.04400191203246068	0.1804	6.273183398588684	-0.008480787082878371	-0.0119	5.406963465486276	0.28748083052526974	0.0008	5.266200361439731	0.3145651561478329	0.0655	5.35653165823196	0.281630150100571	0.1076	5.489660543231349	0.3874131591046481	-0.01275	5.67731035515776	0.3778880969059646	0.0702	5.829635614473832	0.35194393723839623	0.1076	5.410970374410518	0.1628217356060066	-0.01275	5.555404020592911	0.06319298070771062	0.0702	5.685563245433069	-0.014595804714546277	0.1076
1349	44.987513521866795	5.759396319339268	0.17884192018769024	0.0301	5.792352043314529	0.24086980799259447	0.0301	5.974183955284951	0.1679932166880685	0.129	6.172509804901155	0.10838468839686015	0.023	6.217329102325422	0.0642071998075014	0.2179	6.235534070110173	0.10893499447785586	0.1804	6.2260068735297045	0.08767191270733919	-0.0119	5.75502151725984	0.11507935645344237	0.0301	5.979383798453949	0.05823262843601423	0.129	6.218815517768373	0.00042863139363387784	0.023	6.23369160690473	0.0022101395940239874	0.2179	6.239293271606419	-0.04232162981400066	0.1804	6.274474103376721	-0.0070570634560478485	-0.0119	5.401374839319534	0.287257380710104	0.0008	5.264432259120057	0.31323280684633475	0.0655	5.354041572235629	0.28095048601784345	0.1076	5.4848750708523815	0.38563290307248127	-0.01275	5.671237348371292	0.377133969928731	0.0702	5.825084217514345	0.3522107429639594	0.1076	5.406460450453005	0.16214395123356412	-0.01275	5.551876675187732	0.06091640620775649	0.0702	5.680450781706564	-0.01522400862863062	0.1076
1350	45.020862308762176	5.755187568187384	0.17791322505986826	0.0301	5.789035276985164	0.2397798322863478	0.0301	5.9644351162058005	0.16578148849222302	0.129	6.160456913856567	0.10180570201372768	0.023	6.184654679672574	0.06854504920160753	0.2179	6.204835740818993	0.11253693374978849	0.1804	6.2138074237019865	0.07962556659644082	-0.0119	5.751416930113224	0.11319607401508687	0.0301	5.97560911240486	0.05945072209376922	0.129	6.218319370973296	0.0003681763265597179	0.023	6.230880612692288	0.003998146964521968	0.2179	6.24071414518813	-0.04131116796117727	0.1804	6.275143389400775	-0.00646825616329052	-0.0119	5.396025662418766	0.2867882623009304	0.0008	5.264130794188404	0.31134764372483636	0.0655	5.352498176511804	0.2794614529981378	0.1076	5.480506057441176	0.38352625279604013	-0.01275	5.665079329531289	0.3764934700209007	0.0702	5.820211218771881	0.3526255832208592	0.1076	5.40472460007432	0.1611287864550306	-0.01275	5.549934350673958	0.05889687455831757	0.0702	5.6763141761388045	-0.01534793822984612	0.1076
1351	45.05421109565755	5.753576050364446	0.1752740004551234	0.0301	5.785039734381255	0.23817971419754505	0.0301	5.955161315368701	0.1645557317405648	0.129	6.140196040170924	0.0975142626486533	0.023	6.157750756450946	0.06760150922183904	0.2179	6.177944740903509	0.111869113959379	0.1804	6.1906471768930995	0.07479717857308375	-0.0119	5.747703810535943	0.1105135747226119	0.0301	5.970095078367506	0.06103841683061697	0.129	6.21664152963195	0.00135557653818356	0.023	6.2289268356218725	0.004859297537234387	0.2179	6.2435287189450515	-0.041109651584091314	0.1804	6.273536875556676	-0.0053542996553709	-0.0119	5.393398432475103	0.28548579778653516	0.0008	5.264427360573718	0.30952660462797166	0.0655	5.351477188592133	0.27891956008748936	0.1076	5.478223110849046	0.38162778675783154	-0.01275	5.6603585068053714	0.37556897846687903	0.0702	5.816917008292834	0.35173570225250095	0.1076	5.404955676828197	0.16000260593544716	-0.01275	5.548258099641486	0.057782468240579025	0.0702	5.673460861839734	-0.014733564279741176	0.1076
1352	45.08755988255293	5.752257374072849	0.17267907202851795	0.0301	5.781477441636844	0.23714234377067758	0.0301	5.945998850508923	0.16444640342418906	0.129	6.11414671532264	0.09732895060257171	0.023	6.138357434640803	0.06209236444761612	0.2179	6.1557830578550785	0.10722331695821684	0.1804	6.1577748734526985	0.07523383009083817	-0.0119	5.743839670826495	0.10909473177340034	0.0301	5.963758890514	0.06292203868896627	0.129	6.213861391463794	0.003928111369633272	0.023	6.2285522754677505	0.0040007808880647994	0.2179	6.244896236293376	-0.04107367734893595	0.1804	6.268873085019659	-0.002394380097545686	-0.0119	5.392706112761586	0.2841483816177561	0.0008	5.264906784208665	0.3085633559294776	0.0655	5.350125885478939	0.27952538684703115	0.1076	5.477714964530063	0.3805287318918122	-0.01275	5.657026658973776	0.37487022662357533	0.0702	5.8147100205675395	0.3505349935521874	0.1076	5.40532009021251	0.15971785702630148	-0.01275	5.5466376166885505	0.05811156515771799	0.0702	5.67160531516964	-0.013704609917723537	0.1076
1353	45.12090866944831	5.748766679839161	0.17216043761623803	0.0301	5.7789721569842465	0.23755322449502572	0.0301	5.937454806343488	0.16448347583936998	0.129	6.090396057227152	0.09937231855219321	0.023	6.12295901572361	0.05506573891022804	0.2179	6.136577112240533	0.10147500089888013	0.1804	6.125299787692415	0.07798989028892858	-0.0119	5.739591322895934	0.11013664031734789	0.0301	5.957183755301527	0.0645043516222068	0.129	6.210091617298377	0.006943517977111547	0.023	6.2288218296576146	0.0020930478444146816	0.2179	6.242937576003336	-0.04025077982077435	0.1804	6.2620896992204935	0.0016954118042786961	-0.0119	5.3921989477871115	0.28355824772733423	0.0008	5.264990906195538	0.30835864278482517	0.0655	5.348268373380041	0.2807884943933231	0.1076	5.4769634973028305	0.3806174278542661	-0.01275	5.653871914879925	0.3748204954074107	0.0702	5.811877688833587	0.35027657552014396	0.1076	5.40453126536556	0.16091553411114448	-0.01275	5.5452666825622385	0.05982225527030765	0.0702	5.669529914475632	-0.012496013407118974	0.1076
1354	45.15425745634369	5.743549860638839	0.17381573815540702	0.0301	5.776420185423317	0.23887500218782057	0.0301	5.931510474317968	0.1625738454068538	0.129	6.079898475505001	0.09817796662830289	0.023	6.115468344595613	0.0470620111856681	0.2179	6.125576675762174	0.09525737104645686	0.1804	6.109498506074589	0.07594890986486008	-0.0119	5.734776517306154	0.11229853590652358	0.0301	5.950111581428108	0.06491025417800006	0.129	6.2050341919594105	0.008754915015667919	0.023	6.228569210440779	0.0006427747240782983	0.2179	6.238785359774094	-0.039384803471745444	0.1804	6.254928483521715	0.005170357725671122	-0.0119	5.39193749435474	0.28341956625126036	0.0008	5.263417278577387	0.3082434254869186	0.0655	5.346805795004592	0.2824006489759491	0.1076	5.475744265566106	0.3812021689968607	-0.01275	5.651139546361874	0.3751204371885085	0.0702	5.808582879294498	0.3503038851699766	0.1076	5.402828163742147	0.16318603161100517	-0.01275	5.543521623877115	0.06206237645818102	0.0702	5.666782120813341	-0.010811317243305321	0.1076
1355	45.18760624323907	5.738378879727268	0.1763018483317304	0.0301	5.772271564453768	0.24016321849035813	0.0301	5.928506639882468	0.15872408190331408	0.129	6.084333123773329	0.09239201633600684	0.023	6.117386731669262	0.03882777192546781	0.2179	6.125095618652282	0.08931871521532718	0.1804	6.116354016564592	0.06763095016163352	-0.0119	5.729650496609742	0.11367120699506654	0.0301	5.942414206149179	0.06405077330355549	0.129	6.197476736297139	0.009575980508115502	0.023	6.227906709789594	-0.0006255976641463121	0.2179	6.234612374334645	-0.039899598593977306	0.1804	6.247758312160927	0.00727955510139773	-0.0119	5.392275291887788	0.2835854138902833	0.0008	5.259947070159131	0.3085082987570224	0.0655	5.346312764686582	0.2841398123758664	0.1076	5.47499060731834	0.38136278859643435	-0.01275	5.649986824152229	0.37567169888873586	0.0702	5.806010801016545	0.3501136271863471	0.1076	5.401281243919353	0.16559618521161878	-0.01275	5.540959528570059	0.06399719185037925	0.0702	5.663981119394222	-0.008504315998172578	0.1076
